<svg width="257" height="15" viewBox="0 0 257 15" fill="none" xmlns="http://www.w3.org/2000/svg">
<path d="M4.656 14.6C4.53867 14.6 4.44267 14.5627 4.368 14.488C4.29333 14.4133 4.256 14.3173 4.256 14.2V13.096C3.43467 12.9893 2.74667 12.7813 2.192 12.472C1.648 12.1627 1.23733 11.7893 0.96 11.352C0.682667 10.904 0.533333 10.4347 0.512 9.944C0.512 9.85867 0.544 9.784 0.608 9.72C0.682667 9.64533 0.768 9.608 0.864 9.608H2.88C3.02933 9.608 3.14133 9.63467 3.216 9.688C3.29067 9.74133 3.36533 9.81067 3.44 9.896C3.52533 10.056 3.64267 10.2107 3.792 10.36C3.952 10.5093 4.15467 10.632 4.4 10.728C4.656 10.8133 4.97067 10.856 5.344 10.856C5.96267 10.856 6.42667 10.76 6.736 10.568C7.056 10.376 7.216 10.1147 7.216 9.784C7.216 9.54933 7.13067 9.35733 6.96 9.208C6.78933 9.048 6.512 8.90933 6.128 8.792C5.75467 8.664 5.25333 8.536 4.624 8.408C3.81333 8.23733 3.12 8.01867 2.544 7.752C1.97867 7.47467 1.54667 7.11733 1.248 6.68C0.949333 6.232 0.8 5.67733 0.8 5.016C0.8 4.16267 1.104 3.43733 1.712 2.84C2.33067 2.24267 3.17867 1.86933 4.256 1.72V0.599999C4.256 0.482666 4.29333 0.386666 4.368 0.311999C4.44267 0.237333 4.53867 0.2 4.656 0.2H5.984C6.09067 0.2 6.18133 0.237333 6.256 0.311999C6.34133 0.386666 6.384 0.482666 6.384 0.599999V1.752C7.12 1.88 7.73867 2.10933 8.24 2.44C8.74133 2.77067 9.12 3.144 9.376 3.56C9.64267 3.976 9.78133 4.376 9.792 4.76C9.792 4.84533 9.76 4.92533 9.696 5C9.632 5.064 9.552 5.096 9.456 5.096H7.344C7.22667 5.096 7.12533 5.07467 7.04 5.032C6.95467 4.98933 6.88 4.92 6.816 4.824C6.752 4.58933 6.58133 4.38667 6.304 4.216C6.02667 4.03467 5.66933 3.944 5.232 3.944C4.77333 3.944 4.41067 4.02933 4.144 4.2C3.87733 4.36 3.744 4.61067 3.744 4.952C3.744 5.16533 3.81333 5.352 3.952 5.512C4.10133 5.672 4.34667 5.81067 4.688 5.928C5.02933 6.04533 5.49333 6.168 6.08 6.296C7.05067 6.47733 7.83467 6.70667 8.432 6.984C9.02933 7.25067 9.46667 7.60267 9.744 8.04C10.0213 8.46667 10.16 9.00533 10.16 9.656C10.16 10.2853 10 10.84 9.68 11.32C9.37067 11.8 8.93333 12.1893 8.368 12.488C7.80267 12.7867 7.14133 12.984 6.384 13.08V14.2C6.384 14.3173 6.34133 14.4133 6.256 14.488C6.18133 14.5627 6.09067 14.6 5.984 14.6H4.656ZM93.8039 13C93.6972 13 93.6065 12.9627 93.5319 12.888C93.4572 12.8133 93.4199 12.7227 93.4199 12.616V2.2C93.4199 2.08267 93.4572 1.98667 93.5319 1.912C93.6065 1.83733 93.6972 1.8 93.8039 1.8H98.0919C98.9239 1.8 99.6492 1.93333 100.268 2.2C100.887 2.456 101.367 2.85067 101.708 3.384C102.049 3.90667 102.22 4.56267 102.22 5.352C102.22 6.152 102.049 6.81333 101.708 7.336C101.367 7.848 100.887 8.232 100.268 8.488C99.6492 8.744 98.9239 8.872 98.0919 8.872H95.7079V12.616C95.7079 12.7227 95.6705 12.8133 95.5959 12.888C95.5319 12.9627 95.4412 13 95.3239 13H93.8039ZM95.6759 7.096H98.0119C98.6305 7.096 99.1052 6.952 99.4359 6.664C99.7665 6.36533 99.9319 5.928 99.9319 5.352C99.9319 4.81867 99.7772 4.392 99.4679 4.072C99.1585 3.74133 98.6732 3.576 98.0119 3.576H95.6759V7.096ZM177.413 13C177.307 13 177.216 12.9627 177.141 12.888C177.067 12.8133 177.029 12.7227 177.029 12.616V2.2C177.029 2.08267 177.067 1.98667 177.141 1.912C177.216 1.83733 177.307 1.8 177.413 1.8H184.453C184.571 1.8 184.667 1.83733 184.741 1.912C184.816 1.98667 184.853 2.08267 184.853 2.2V3.256C184.853 3.36267 184.816 3.45333 184.741 3.528C184.667 3.60267 184.571 3.64 184.453 3.64H179.189V6.472H184.101C184.219 6.472 184.315 6.50933 184.389 6.584C184.464 6.648 184.501 6.73867 184.501 6.856V7.848C184.501 7.96533 184.464 8.06133 184.389 8.136C184.315 8.2 184.219 8.232 184.101 8.232H179.189V11.16H184.581C184.699 11.16 184.795 11.1973 184.869 11.272C184.944 11.3467 184.981 11.4427 184.981 11.56V12.616C184.981 12.7227 184.944 12.8133 184.869 12.888C184.795 12.9627 184.699 13 184.581 13H177.413Z" fill="#285193"/>
<path d="M19.0254 13C18.9187 13 18.828 12.968 18.7534 12.904C18.6894 12.8293 18.6574 12.7387 18.6574 12.632V3.672L16.0014 5.72C15.916 5.784 15.8254 5.81067 15.7294 5.8C15.6334 5.78933 15.5534 5.74133 15.4894 5.656L15.0734 5.128C15.0094 5.032 14.9827 4.936 14.9934 4.84C15.0147 4.744 15.068 4.664 15.1534 4.6L18.6414 1.912C18.716 1.85867 18.7854 1.82667 18.8494 1.816C18.9134 1.80533 18.9827 1.8 19.0574 1.8H19.8734C19.98 1.8 20.0654 1.83733 20.1294 1.912C20.1934 1.976 20.2254 2.06133 20.2254 2.168V12.632C20.2254 12.7387 20.1934 12.8293 20.1294 12.904C20.0654 12.968 19.98 13 19.8734 13H19.0254ZM26.5251 13.16C25.7891 13.16 25.1651 13.048 24.6531 12.824C24.1518 12.5893 23.7411 12.2693 23.4211 11.864C23.1011 11.4587 22.8665 10.9947 22.7171 10.472C22.5785 9.94933 22.4985 9.39467 22.4771 8.808C22.4665 8.52 22.4558 8.216 22.4451 7.896C22.4451 7.576 22.4451 7.256 22.4451 6.936C22.4558 6.60533 22.4665 6.29067 22.4771 5.992C22.4878 5.40533 22.5678 4.85067 22.7171 4.328C22.8771 3.79467 23.1118 3.33067 23.4211 2.936C23.7411 2.53067 24.1571 2.216 24.6691 1.992C25.1811 1.75733 25.7998 1.64 26.5251 1.64C27.2611 1.64 27.8798 1.75733 28.3811 1.992C28.8931 2.216 29.3091 2.53067 29.6291 2.936C29.9491 3.33067 30.1838 3.79467 30.3331 4.328C30.4931 4.85067 30.5785 5.40533 30.5891 5.992C30.5998 6.29067 30.6051 6.60533 30.6051 6.936C30.6158 7.256 30.6158 7.576 30.6051 7.896C30.6051 8.216 30.5998 8.52 30.5891 8.808C30.5785 9.39467 30.4931 9.94933 30.3331 10.472C30.1838 10.9947 29.9491 11.4587 29.6291 11.864C29.3198 12.2693 28.9091 12.5893 28.3971 12.824C27.8958 13.048 27.2718 13.16 26.5251 13.16ZM26.5251 11.8C27.3571 11.8 27.9705 11.528 28.3651 10.984C28.7705 10.4293 28.9785 9.67733 28.9891 8.728C29.0105 8.41867 29.0211 8.12 29.0211 7.832C29.0211 7.53333 29.0211 7.24 29.0211 6.952C29.0211 6.65333 29.0105 6.36 28.9891 6.072C28.9785 5.144 28.7705 4.40267 28.3651 3.848C27.9705 3.28267 27.3571 3 26.5251 3C25.7038 3 25.0905 3.28267 24.6851 3.848C24.2905 4.40267 24.0825 5.144 24.0611 6.072C24.0611 6.36 24.0558 6.65333 24.0451 6.952C24.0451 7.24 24.0451 7.53333 24.0451 7.832C24.0558 8.12 24.0611 8.41867 24.0611 8.728C24.0825 9.67733 24.2958 10.4293 24.7011 10.984C25.1065 11.528 25.7145 11.8 26.5251 11.8ZM36.0254 13C35.9187 13 35.828 12.968 35.7534 12.904C35.6894 12.8293 35.6574 12.7387 35.6574 12.632V3.672L33.0014 5.72C32.916 5.784 32.8254 5.81067 32.7294 5.8C32.6334 5.78933 32.5534 5.74133 32.4894 5.656L32.0734 5.128C32.0094 5.032 31.9827 4.936 31.9934 4.84C32.0147 4.744 32.068 4.664 32.1534 4.6L35.6414 1.912C35.716 1.85867 35.7854 1.82667 35.8494 1.816C35.9134 1.80533 35.9827 1.8 36.0574 1.8H36.8734C36.98 1.8 37.0654 1.83733 37.1294 1.912C37.1934 1.976 37.2254 2.06133 37.2254 2.168V12.632C37.2254 12.7387 37.1934 12.8293 37.1294 12.904C37.0654 12.968 36.98 13 36.8734 13H36.0254ZM43.2211 13.16C42.5491 13.16 41.9625 13.08 41.4611 12.92C40.9598 12.7493 40.5385 12.5253 40.1971 12.248C39.8558 11.9707 39.5945 11.6667 39.4131 11.336C39.2425 11.0053 39.1518 10.664 39.1411 10.312C39.1411 10.216 39.1731 10.1413 39.2371 10.088C39.3011 10.0347 39.3811 10.008 39.4771 10.008H40.2611C40.3571 10.008 40.4425 10.0293 40.5171 10.072C40.5918 10.1147 40.6558 10.2053 40.7091 10.344C40.8158 10.728 40.9971 11.0267 41.2531 11.24C41.5198 11.4533 41.8238 11.6027 42.1651 11.688C42.5171 11.7627 42.8691 11.8 43.2211 11.8C43.9571 11.8 44.5545 11.624 45.0131 11.272C45.4718 10.92 45.7011 10.4027 45.7011 9.72C45.7011 9.02667 45.4931 8.53067 45.0771 8.232C44.6611 7.93333 44.0851 7.784 43.3491 7.784H41.8291C41.7225 7.784 41.6318 7.752 41.5571 7.688C41.4931 7.624 41.4611 7.53333 41.4611 7.416V6.984C41.4611 6.888 41.4771 6.808 41.5091 6.744C41.5518 6.66933 41.5945 6.60533 41.6371 6.552L44.7411 3.16H40.0211C39.9145 3.16 39.8238 3.128 39.7491 3.064C39.6851 3 39.6531 2.90933 39.6531 2.792V2.184C39.6531 2.06667 39.6851 1.976 39.7491 1.912C39.8238 1.83733 39.9145 1.8 40.0211 1.8H46.4051C46.5225 1.8 46.6131 1.83733 46.6771 1.912C46.7518 1.976 46.7891 2.06667 46.7891 2.184V2.76C46.7891 2.83467 46.7678 2.904 46.7251 2.968C46.6931 3.02133 46.6558 3.07467 46.6131 3.128L43.5251 6.568L43.7811 6.584C44.4851 6.60533 45.0985 6.73333 45.6211 6.968C46.1545 7.20267 46.5651 7.55467 46.8531 8.024C47.1518 8.48267 47.3011 9.064 47.3011 9.768C47.3011 10.4827 47.1251 11.096 46.7731 11.608C46.4211 12.1093 45.9358 12.4933 45.3171 12.76C44.6985 13.0267 43.9998 13.16 43.2211 13.16ZM50.4465 13C50.3505 13 50.2705 12.968 50.2065 12.904C50.1532 12.8293 50.1265 12.744 50.1265 12.648C50.1265 12.616 50.1372 12.568 50.1585 12.504L54.1425 3.192H48.8945C48.7878 3.192 48.6972 3.16 48.6225 3.096C48.5585 3.02133 48.5265 2.93067 48.5265 2.824V2.184C48.5265 2.06667 48.5585 1.976 48.6225 1.912C48.6972 1.83733 48.7878 1.8 48.8945 1.8H55.4545C55.5718 1.8 55.6625 1.83733 55.7265 1.912C55.8012 1.976 55.8385 2.06667 55.8385 2.184V2.776C55.8385 2.91467 55.8278 3.02667 55.8065 3.112C55.7852 3.19733 55.7532 3.29333 55.7105 3.4L51.7585 12.6C51.7265 12.6853 51.6732 12.776 51.5985 12.872C51.5345 12.9573 51.4385 13 51.3105 13H50.4465ZM56.6588 13C56.5521 13 56.4614 12.968 56.3868 12.904C56.3228 12.8293 56.2908 12.7387 56.2908 12.632V11.48C56.2908 11.3733 56.3228 11.288 56.3868 11.224C56.4614 11.1493 56.5521 11.112 56.6588 11.112H57.8108C57.9174 11.112 58.0028 11.1493 58.0668 11.224C58.1414 11.288 58.1788 11.3733 58.1788 11.48V12.632C58.1788 12.7387 58.1414 12.8293 58.0668 12.904C58.0028 12.968 57.9174 13 57.8108 13H56.6588ZM60.402 13C60.2953 13 60.2047 12.968 60.13 12.904C60.066 12.8293 60.034 12.7387 60.034 12.632V12.12C60.034 12.024 60.0607 11.9173 60.114 11.8C60.1673 11.6827 60.274 11.5547 60.434 11.416L63.826 8.024C64.37 7.56533 64.7967 7.176 65.106 6.856C65.426 6.52533 65.65 6.21067 65.778 5.912C65.9167 5.61333 65.986 5.304 65.986 4.984C65.986 4.376 65.8153 3.896 65.474 3.544C65.1327 3.18133 64.626 3 63.954 3C63.5273 3 63.1593 3.09067 62.85 3.272C62.5407 3.44267 62.2953 3.68267 62.114 3.992C61.9433 4.29067 61.8313 4.632 61.778 5.016C61.7567 5.15467 61.698 5.25067 61.602 5.304C61.5167 5.35733 61.4367 5.384 61.362 5.384H60.53C60.434 5.384 60.354 5.35733 60.29 5.304C60.226 5.24 60.194 5.16533 60.194 5.08C60.2047 4.67467 60.29 4.26933 60.45 3.864C60.61 3.448 60.8447 3.07467 61.154 2.744C61.474 2.41333 61.8633 2.14667 62.322 1.944C62.7913 1.73067 63.3353 1.624 63.954 1.624C64.7967 1.624 65.4847 1.77867 66.018 2.088C66.562 2.38667 66.962 2.78667 67.218 3.288C67.474 3.78933 67.602 4.33867 67.602 4.936C67.602 5.40533 67.522 5.83733 67.362 6.232C67.202 6.616 66.9673 6.99467 66.658 7.368C66.3593 7.73067 65.986 8.104 65.538 8.488L62.466 11.608H67.458C67.5753 11.608 67.666 11.64 67.73 11.704C67.8047 11.768 67.842 11.8587 67.842 11.976V12.632C67.842 12.7387 67.8047 12.8293 67.73 12.904C67.666 12.968 67.5753 13 67.458 13H60.402ZM111.057 13C110.95 13 110.859 12.968 110.785 12.904C110.721 12.8293 110.689 12.7387 110.689 12.632V3.672L108.033 5.72C107.947 5.784 107.857 5.81067 107.761 5.8C107.665 5.78933 107.585 5.74133 107.521 5.656L107.105 5.128C107.041 5.032 107.014 4.936 107.025 4.84C107.046 4.744 107.099 4.664 107.185 4.6L110.673 1.912C110.747 1.85867 110.817 1.82667 110.881 1.816C110.945 1.80533 111.014 1.8 111.089 1.8H111.905C112.011 1.8 112.097 1.83733 112.161 1.912C112.225 1.976 112.257 2.06133 112.257 2.168V12.632C112.257 12.7387 112.225 12.8293 112.161 12.904C112.097 12.968 112.011 13 111.905 13H111.057ZM118.252 13.16C117.58 13.16 116.994 13.08 116.492 12.92C115.991 12.7493 115.57 12.5253 115.228 12.248C114.887 11.9707 114.626 11.6667 114.444 11.336C114.274 11.0053 114.183 10.664 114.172 10.312C114.172 10.216 114.204 10.1413 114.268 10.088C114.332 10.0347 114.412 10.008 114.508 10.008H115.292C115.388 10.008 115.474 10.0293 115.548 10.072C115.623 10.1147 115.687 10.2053 115.74 10.344C115.847 10.728 116.028 11.0267 116.284 11.24C116.551 11.4533 116.855 11.6027 117.196 11.688C117.548 11.7627 117.9 11.8 118.252 11.8C118.988 11.8 119.586 11.624 120.044 11.272C120.503 10.92 120.732 10.4027 120.732 9.72C120.732 9.02667 120.524 8.53067 120.108 8.232C119.692 7.93333 119.116 7.784 118.38 7.784H116.86C116.754 7.784 116.663 7.752 116.588 7.688C116.524 7.624 116.492 7.53333 116.492 7.416V6.984C116.492 6.888 116.508 6.808 116.54 6.744C116.583 6.66933 116.626 6.60533 116.668 6.552L119.772 3.16H115.052C114.946 3.16 114.855 3.128 114.78 3.064C114.716 3 114.684 2.90933 114.684 2.792V2.184C114.684 2.06667 114.716 1.976 114.78 1.912C114.855 1.83733 114.946 1.8 115.052 1.8H121.436C121.554 1.8 121.644 1.83733 121.708 1.912C121.783 1.976 121.82 2.06667 121.82 2.184V2.76C121.82 2.83467 121.799 2.904 121.756 2.968C121.724 3.02133 121.687 3.07467 121.644 3.128L118.556 6.568L118.812 6.584C119.516 6.60533 120.13 6.73333 120.652 6.968C121.186 7.20267 121.596 7.55467 121.884 8.024C122.183 8.48267 122.332 9.064 122.332 9.768C122.332 10.4827 122.156 11.096 121.804 11.608C121.452 12.1093 120.967 12.4933 120.348 12.76C119.73 13.0267 119.031 13.16 118.252 13.16ZM128.182 13.16C127.563 13.16 126.992 13.0853 126.47 12.936C125.958 12.776 125.515 12.552 125.142 12.264C124.779 11.9653 124.496 11.608 124.294 11.192C124.091 10.776 123.99 10.3067 123.99 9.784C123.99 9.13333 124.144 8.57333 124.454 8.104C124.774 7.63467 125.195 7.27733 125.718 7.032C125.302 6.78667 124.976 6.46667 124.742 6.072C124.507 5.67733 124.39 5.208 124.39 4.664C124.39 4.024 124.544 3.48533 124.854 3.048C125.174 2.6 125.616 2.25333 126.182 2.008C126.758 1.76267 127.424 1.64 128.182 1.64C128.928 1.64 129.584 1.76267 130.15 2.008C130.726 2.24267 131.168 2.584 131.478 3.032C131.798 3.48 131.958 4.01867 131.958 4.648C131.958 5.192 131.84 5.66667 131.606 6.072C131.371 6.46667 131.051 6.78667 130.646 7.032C131.168 7.27733 131.584 7.63467 131.894 8.104C132.214 8.57333 132.374 9.13333 132.374 9.784C132.374 10.4773 132.198 11.08 131.846 11.592C131.494 12.0933 131.003 12.4827 130.374 12.76C129.744 13.0267 129.014 13.16 128.182 13.16ZM128.182 11.88C128.672 11.88 129.115 11.7947 129.51 11.624C129.904 11.4533 130.219 11.2133 130.454 10.904C130.688 10.584 130.806 10.2107 130.806 9.784C130.806 9.34667 130.688 8.97867 130.454 8.68C130.219 8.37067 129.904 8.136 129.51 7.976C129.115 7.80533 128.672 7.72 128.182 7.72C127.691 7.72 127.243 7.80533 126.838 7.976C126.443 8.136 126.128 8.37067 125.894 8.68C125.659 8.97867 125.542 9.34667 125.542 9.784C125.542 10.2107 125.659 10.584 125.894 10.904C126.128 11.2133 126.443 11.4533 126.838 11.624C127.243 11.7947 127.691 11.88 128.182 11.88ZM128.182 6.456C128.587 6.456 128.96 6.38133 129.302 6.232C129.654 6.08267 129.931 5.88 130.134 5.624C130.347 5.368 130.454 5.05867 130.454 4.696C130.454 4.33333 130.352 4.01867 130.15 3.752C129.958 3.48533 129.686 3.28267 129.334 3.144C128.992 2.99467 128.608 2.92 128.182 2.92C127.755 2.92 127.366 2.99467 127.014 3.144C126.672 3.28267 126.4 3.48533 126.198 3.752C125.995 4.01867 125.894 4.33333 125.894 4.696C125.894 5.06933 125.995 5.38933 126.198 5.656C126.4 5.912 126.672 6.10933 127.014 6.248C127.366 6.38667 127.755 6.456 128.182 6.456ZM134.549 13C134.443 13 134.352 12.968 134.277 12.904C134.213 12.8293 134.181 12.7387 134.181 12.632V11.48C134.181 11.3733 134.213 11.288 134.277 11.224C134.352 11.1493 134.443 11.112 134.549 11.112H135.701C135.808 11.112 135.893 11.1493 135.957 11.224C136.032 11.288 136.069 11.3733 136.069 11.48V12.632C136.069 12.7387 136.032 12.8293 135.957 12.904C135.893 12.968 135.808 13 135.701 13H134.549ZM138.293 13C138.186 13 138.095 12.968 138.021 12.904C137.957 12.8293 137.925 12.7387 137.925 12.632V12.12C137.925 12.024 137.951 11.9173 138.005 11.8C138.058 11.6827 138.165 11.5547 138.325 11.416L141.717 8.024C142.261 7.56533 142.687 7.176 142.997 6.856C143.317 6.52533 143.541 6.21067 143.669 5.912C143.807 5.61333 143.877 5.304 143.877 4.984C143.877 4.376 143.706 3.896 143.365 3.544C143.023 3.18133 142.517 3 141.845 3C141.418 3 141.05 3.09067 140.741 3.272C140.431 3.44267 140.186 3.68267 140.005 3.992C139.834 4.29067 139.722 4.632 139.669 5.016C139.647 5.15467 139.589 5.25067 139.493 5.304C139.407 5.35733 139.327 5.384 139.253 5.384H138.421C138.325 5.384 138.245 5.35733 138.181 5.304C138.117 5.24 138.085 5.16533 138.085 5.08C138.095 4.67467 138.181 4.26933 138.341 3.864C138.501 3.448 138.735 3.07467 139.045 2.744C139.365 2.41333 139.754 2.14667 140.213 1.944C140.682 1.73067 141.226 1.624 141.845 1.624C142.687 1.624 143.375 1.77867 143.909 2.088C144.453 2.38667 144.853 2.78667 145.109 3.288C145.365 3.78933 145.493 4.33867 145.493 4.936C145.493 5.40533 145.413 5.83733 145.253 6.232C145.093 6.616 144.858 6.99467 144.549 7.368C144.25 7.73067 143.877 8.104 143.429 8.488L140.357 11.608H145.349C145.466 11.608 145.557 11.64 145.621 11.704C145.695 11.768 145.733 11.8587 145.733 11.976V12.632C145.733 12.7387 145.695 12.8293 145.621 12.904C145.557 12.968 145.466 13 145.349 13H138.293ZM151.459 13.16C150.574 13.16 149.822 12.984 149.203 12.632C148.585 12.2693 148.11 11.8 147.779 11.224C147.459 10.6373 147.299 10.0027 147.299 9.32C147.299 9 147.337 8.696 147.411 8.408C147.497 8.10933 147.598 7.832 147.715 7.576C147.843 7.30933 147.966 7.07467 148.083 6.872C148.211 6.65867 148.323 6.488 148.419 6.36L151.459 2.12C151.513 2.06667 151.577 2.00267 151.651 1.928C151.726 1.84267 151.838 1.8 151.987 1.8H152.835C152.931 1.8 153.006 1.83733 153.059 1.912C153.123 1.976 153.155 2.056 153.155 2.152C153.155 2.19467 153.15 2.23733 153.139 2.28C153.129 2.312 153.113 2.33867 153.091 2.36L150.755 5.624C150.883 5.58133 151.027 5.55467 151.187 5.544C151.358 5.52267 151.518 5.512 151.667 5.512C152.254 5.52267 152.787 5.62933 153.267 5.832C153.747 6.03467 154.158 6.312 154.499 6.664C154.851 7.00533 155.118 7.40533 155.299 7.864C155.481 8.312 155.571 8.792 155.571 9.304C155.571 9.976 155.411 10.6053 155.091 11.192C154.771 11.7787 154.302 12.2533 153.683 12.616C153.075 12.9787 152.334 13.16 151.459 13.16ZM151.443 11.8C151.891 11.8 152.307 11.704 152.691 11.512C153.075 11.32 153.385 11.0427 153.619 10.68C153.865 10.3067 153.987 9.85333 153.987 9.32C153.987 8.776 153.87 8.32267 153.635 7.96C153.401 7.58667 153.086 7.30933 152.691 7.128C152.307 6.936 151.891 6.84 151.443 6.84C150.995 6.84 150.579 6.936 150.195 7.128C149.811 7.30933 149.497 7.58667 149.251 7.96C149.017 8.32267 148.899 8.776 148.899 9.32C148.899 9.85333 149.017 10.3067 149.251 10.68C149.497 11.0427 149.811 11.32 150.195 11.512C150.579 11.704 150.995 11.8 151.443 11.8ZM194.072 13C193.966 13 193.875 12.968 193.8 12.904C193.736 12.8293 193.704 12.7387 193.704 12.632V3.672L191.048 5.72C190.963 5.784 190.872 5.81067 190.776 5.8C190.68 5.78933 190.6 5.74133 190.536 5.656L190.12 5.128C190.056 5.032 190.03 4.936 190.04 4.84C190.062 4.744 190.115 4.664 190.2 4.6L193.688 1.912C193.763 1.85867 193.832 1.82667 193.896 1.816C193.96 1.80533 194.03 1.8 194.104 1.8H194.92C195.027 1.8 195.112 1.83733 195.176 1.912C195.24 1.976 195.272 2.06133 195.272 2.168V12.632C195.272 12.7387 195.24 12.8293 195.176 12.904C195.112 12.968 195.027 13 194.92 13H194.072ZM201.572 13.16C200.836 13.16 200.212 13.048 199.7 12.824C199.199 12.5893 198.788 12.2693 198.468 11.864C198.148 11.4587 197.913 10.9947 197.764 10.472C197.625 9.94933 197.545 9.39467 197.524 8.808C197.513 8.52 197.503 8.216 197.492 7.896C197.492 7.576 197.492 7.256 197.492 6.936C197.503 6.60533 197.513 6.29067 197.524 5.992C197.535 5.40533 197.615 4.85067 197.764 4.328C197.924 3.79467 198.159 3.33067 198.468 2.936C198.788 2.53067 199.204 2.216 199.716 1.992C200.228 1.75733 200.847 1.64 201.572 1.64C202.308 1.64 202.927 1.75733 203.428 1.992C203.94 2.216 204.356 2.53067 204.676 2.936C204.996 3.33067 205.231 3.79467 205.38 4.328C205.54 4.85067 205.625 5.40533 205.636 5.992C205.647 6.29067 205.652 6.60533 205.652 6.936C205.663 7.256 205.663 7.576 205.652 7.896C205.652 8.216 205.647 8.52 205.636 8.808C205.625 9.39467 205.54 9.94933 205.38 10.472C205.231 10.9947 204.996 11.4587 204.676 11.864C204.367 12.2693 203.956 12.5893 203.444 12.824C202.943 13.048 202.319 13.16 201.572 13.16ZM201.572 11.8C202.404 11.8 203.017 11.528 203.412 10.984C203.817 10.4293 204.025 9.67733 204.036 8.728C204.057 8.41867 204.068 8.12 204.068 7.832C204.068 7.53333 204.068 7.24 204.068 6.952C204.068 6.65333 204.057 6.36 204.036 6.072C204.025 5.144 203.817 4.40267 203.412 3.848C203.017 3.28267 202.404 3 201.572 3C200.751 3 200.137 3.28267 199.732 3.848C199.337 4.40267 199.129 5.144 199.108 6.072C199.108 6.36 199.103 6.65333 199.092 6.952C199.092 7.24 199.092 7.53333 199.092 7.832C199.103 8.12 199.108 8.41867 199.108 8.728C199.129 9.67733 199.343 10.4293 199.748 10.984C200.153 11.528 200.761 11.8 201.572 11.8ZM209.744 13C209.648 13 209.568 12.968 209.504 12.904C209.451 12.8293 209.424 12.744 209.424 12.648C209.424 12.5947 209.43 12.552 209.44 12.52C209.462 12.488 209.478 12.4613 209.488 12.44L211.936 9.032C211.67 9.096 211.382 9.128 211.072 9.128C210.475 9.11733 209.942 9.01067 209.472 8.808C209.003 8.60533 208.603 8.33333 208.272 7.992C207.942 7.64 207.691 7.24533 207.52 6.808C207.35 6.37067 207.264 5.912 207.264 5.432C207.264 4.96267 207.344 4.504 207.504 4.056C207.675 3.608 207.926 3.20267 208.256 2.84C208.598 2.47733 209.019 2.18933 209.52 1.976C210.022 1.752 210.614 1.64 211.296 1.64C211.968 1.64 212.555 1.74667 213.056 1.96C213.568 2.16267 213.995 2.44533 214.336 2.808C214.688 3.16 214.944 3.56 215.104 4.008C215.275 4.456 215.36 4.92 215.36 5.4C215.36 5.83733 215.296 6.23733 215.168 6.6C215.04 6.96267 214.886 7.288 214.704 7.576C214.534 7.864 214.363 8.13067 214.192 8.376L211.12 12.68C211.078 12.7333 211.019 12.8027 210.944 12.888C210.87 12.9627 210.758 13 210.608 13H209.744ZM211.296 7.832C211.744 7.832 212.155 7.736 212.528 7.544C212.912 7.34133 213.216 7.064 213.44 6.712C213.664 6.34933 213.776 5.91733 213.776 5.416C213.776 4.91467 213.664 4.488 213.44 4.136C213.216 3.77333 212.912 3.496 212.528 3.304C212.155 3.10133 211.744 3 211.296 3C210.859 3 210.454 3.10133 210.08 3.304C209.707 3.496 209.408 3.77333 209.184 4.136C208.96 4.488 208.848 4.91467 208.848 5.416C208.848 5.91733 208.96 6.34933 209.184 6.712C209.408 7.064 209.707 7.34133 210.08 7.544C210.454 7.736 210.859 7.832 211.296 7.832ZM221.229 13.16C220.61 13.16 220.039 13.0853 219.517 12.936C219.005 12.776 218.562 12.552 218.189 12.264C217.826 11.9653 217.543 11.608 217.341 11.192C217.138 10.776 217.037 10.3067 217.037 9.784C217.037 9.13333 217.191 8.57333 217.501 8.104C217.821 7.63467 218.242 7.27733 218.765 7.032C218.349 6.78667 218.023 6.46667 217.789 6.072C217.554 5.67733 217.437 5.208 217.437 4.664C217.437 4.024 217.591 3.48533 217.901 3.048C218.221 2.6 218.663 2.25333 219.229 2.008C219.805 1.76267 220.471 1.64 221.229 1.64C221.975 1.64 222.631 1.76267 223.197 2.008C223.773 2.24267 224.215 2.584 224.525 3.032C224.845 3.48 225.005 4.01867 225.005 4.648C225.005 5.192 224.887 5.66667 224.653 6.072C224.418 6.46667 224.098 6.78667 223.693 7.032C224.215 7.27733 224.631 7.63467 224.941 8.104C225.261 8.57333 225.421 9.13333 225.421 9.784C225.421 10.4773 225.245 11.08 224.893 11.592C224.541 12.0933 224.05 12.4827 223.421 12.76C222.791 13.0267 222.061 13.16 221.229 13.16ZM221.229 11.88C221.719 11.88 222.162 11.7947 222.557 11.624C222.951 11.4533 223.266 11.2133 223.501 10.904C223.735 10.584 223.853 10.2107 223.853 9.784C223.853 9.34667 223.735 8.97867 223.501 8.68C223.266 8.37067 222.951 8.136 222.557 7.976C222.162 7.80533 221.719 7.72 221.229 7.72C220.738 7.72 220.29 7.80533 219.885 7.976C219.49 8.136 219.175 8.37067 218.941 8.68C218.706 8.97867 218.589 9.34667 218.589 9.784C218.589 10.2107 218.706 10.584 218.941 10.904C219.175 11.2133 219.49 11.4533 219.885 11.624C220.29 11.7947 220.738 11.88 221.229 11.88ZM221.229 6.456C221.634 6.456 222.007 6.38133 222.349 6.232C222.701 6.08267 222.978 5.88 223.181 5.624C223.394 5.368 223.501 5.05867 223.501 4.696C223.501 4.33333 223.399 4.01867 223.197 3.752C223.005 3.48533 222.733 3.28267 222.381 3.144C222.039 2.99467 221.655 2.92 221.229 2.92C220.802 2.92 220.413 2.99467 220.061 3.144C219.719 3.28267 219.447 3.48533 219.245 3.752C219.042 4.01867 218.941 4.33333 218.941 4.696C218.941 5.06933 219.042 5.38933 219.245 5.656C219.447 5.912 219.719 6.10933 220.061 6.248C220.413 6.38667 220.802 6.456 221.229 6.456ZM231.401 13.16C230.782 13.16 230.211 13.0853 229.689 12.936C229.177 12.776 228.734 12.552 228.361 12.264C227.998 11.9653 227.715 11.608 227.513 11.192C227.31 10.776 227.209 10.3067 227.209 9.784C227.209 9.13333 227.363 8.57333 227.673 8.104C227.993 7.63467 228.414 7.27733 228.937 7.032C228.521 6.78667 228.195 6.46667 227.961 6.072C227.726 5.67733 227.609 5.208 227.609 4.664C227.609 4.024 227.763 3.48533 228.073 3.048C228.393 2.6 228.835 2.25333 229.401 2.008C229.977 1.76267 230.643 1.64 231.401 1.64C232.147 1.64 232.803 1.76267 233.369 2.008C233.945 2.24267 234.387 2.584 234.697 3.032C235.017 3.48 235.177 4.01867 235.177 4.648C235.177 5.192 235.059 5.66667 234.825 6.072C234.59 6.46667 234.27 6.78667 233.865 7.032C234.387 7.27733 234.803 7.63467 235.113 8.104C235.433 8.57333 235.593 9.13333 235.593 9.784C235.593 10.4773 235.417 11.08 235.065 11.592C234.713 12.0933 234.222 12.4827 233.593 12.76C232.963 13.0267 232.233 13.16 231.401 13.16ZM231.401 11.88C231.891 11.88 232.334 11.7947 232.729 11.624C233.123 11.4533 233.438 11.2133 233.673 10.904C233.907 10.584 234.025 10.2107 234.025 9.784C234.025 9.34667 233.907 8.97867 233.673 8.68C233.438 8.37067 233.123 8.136 232.729 7.976C232.334 7.80533 231.891 7.72 231.401 7.72C230.91 7.72 230.462 7.80533 230.057 7.976C229.662 8.136 229.347 8.37067 229.113 8.68C228.878 8.97867 228.761 9.34667 228.761 9.784C228.761 10.2107 228.878 10.584 229.113 10.904C229.347 11.2133 229.662 11.4533 230.057 11.624C230.462 11.7947 230.91 11.88 231.401 11.88ZM231.401 6.456C231.806 6.456 232.179 6.38133 232.521 6.232C232.873 6.08267 233.15 5.88 233.353 5.624C233.566 5.368 233.673 5.05867 233.673 4.696C233.673 4.33333 233.571 4.01867 233.369 3.752C233.177 3.48533 232.905 3.28267 232.553 3.144C232.211 2.99467 231.827 2.92 231.401 2.92C230.974 2.92 230.585 2.99467 230.233 3.144C229.891 3.28267 229.619 3.48533 229.417 3.752C229.214 4.01867 229.113 4.33333 229.113 4.696C229.113 5.06933 229.214 5.38933 229.417 5.656C229.619 5.912 229.891 6.10933 230.233 6.248C230.585 6.38667 230.974 6.456 231.401 6.456ZM237.768 13C237.661 13 237.571 12.968 237.496 12.904C237.432 12.8293 237.4 12.7387 237.4 12.632V11.48C237.4 11.3733 237.432 11.288 237.496 11.224C237.571 11.1493 237.661 11.112 237.768 11.112H238.92C239.027 11.112 239.112 11.1493 239.176 11.224C239.251 11.288 239.288 11.3733 239.288 11.48V12.632C239.288 12.7387 239.251 12.8293 239.176 12.904C239.112 12.968 239.027 13 238.92 13H237.768ZM242.259 13C242.163 13 242.083 12.968 242.019 12.904C241.966 12.8293 241.939 12.744 241.939 12.648C241.939 12.616 241.95 12.568 241.971 12.504L245.955 3.192H240.707C240.6 3.192 240.51 3.16 240.435 3.096C240.371 3.02133 240.339 2.93067 240.339 2.824V2.184C240.339 2.06667 240.371 1.976 240.435 1.912C240.51 1.83733 240.6 1.8 240.707 1.8H247.267C247.384 1.8 247.475 1.83733 247.539 1.912C247.614 1.976 247.651 2.06667 247.651 2.184V2.776C247.651 2.91467 247.64 3.02667 247.619 3.112C247.598 3.19733 247.566 3.29333 247.523 3.4L243.571 12.6C243.539 12.6853 243.486 12.776 243.411 12.872C243.347 12.9573 243.251 13 243.123 13H242.259ZM249.23 13C249.123 13 249.033 12.968 248.958 12.904C248.894 12.8293 248.862 12.7387 248.862 12.632V12.12C248.862 12.024 248.889 11.9173 248.942 11.8C248.995 11.6827 249.102 11.5547 249.262 11.416L252.654 8.024C253.198 7.56533 253.625 7.176 253.934 6.856C254.254 6.52533 254.478 6.21067 254.606 5.912C254.745 5.61333 254.814 5.304 254.814 4.984C254.814 4.376 254.643 3.896 254.302 3.544C253.961 3.18133 253.454 3 252.782 3C252.355 3 251.987 3.09067 251.678 3.272C251.369 3.44267 251.123 3.68267 250.942 3.992C250.771 4.29067 250.659 4.632 250.606 5.016C250.585 5.15467 250.526 5.25067 250.43 5.304C250.345 5.35733 250.265 5.384 250.19 5.384H249.358C249.262 5.384 249.182 5.35733 249.118 5.304C249.054 5.24 249.022 5.16533 249.022 5.08C249.033 4.67467 249.118 4.26933 249.278 3.864C249.438 3.448 249.673 3.07467 249.982 2.744C250.302 2.41333 250.691 2.14667 251.15 1.944C251.619 1.73067 252.163 1.624 252.782 1.624C253.625 1.624 254.313 1.77867 254.846 2.088C255.39 2.38667 255.79 2.78667 256.046 3.288C256.302 3.78933 256.43 4.33867 256.43 4.936C256.43 5.40533 256.35 5.83733 256.19 6.232C256.03 6.616 255.795 6.99467 255.486 7.368C255.187 7.73067 254.814 8.104 254.366 8.488L251.294 11.608H256.286C256.403 11.608 256.494 11.64 256.558 11.704C256.633 11.768 256.67 11.8587 256.67 11.976V12.632C256.67 12.7387 256.633 12.8293 256.558 12.904C256.494 12.968 256.403 13 256.286 13H249.23Z" fill="#7A7A7A"/>
</svg>
