<svg width="18" height="20" viewBox="0 0 18 20" fill="none" xmlns="http://www.w3.org/2000/svg">
<path d="M4.11111 8.61108H5.66667V10.2778H4.11111V8.61108ZM15 4.44442V16.1111C15 17.0278 14.3 17.7778 13.4444 17.7778H2.55556C2.143 17.7778 1.74733 17.6022 1.45561 17.2896C1.16389 16.977 1 16.5531 1 16.1111L1.00778 4.44442C1.00778 3.52775 1.69222 2.77775 2.55556 2.77775H3.33333V1.11108H4.88889V2.77775H11.1111V1.11108H12.6667V2.77775H13.4444C14.3 2.77775 15 3.52775 15 4.44442ZM2.55556 6.11108H13.4444V4.44442H2.55556V6.11108ZM13.4444 16.1111V7.77775H2.55556V16.1111H13.4444ZM10.3333 10.2778H11.8889V8.61108H10.3333V10.2778ZM7.22222 10.2778H8.77778V8.61108H7.22222V10.2778Z" fill="#7688A4"/>
</svg>
